# AST/ASF file generated using VICON BodyLanguage
# -----------------------------------------------
:version 1.10
:name VICON
:units
  mass 1.0
  length 0.45
  angle deg
:documentation
   .ast/.asf automatically generated from VICON data using
   VICON BodyBuilder and BodyLanguage model FoxedUp or BRILLIANT.MOD
:root
   order TX TY TZ RX RY RZ
   axis XYZ
   position 0 0 0  
   orientation 0 0 0 
:bonedata
  begin
     id 1 
     name lhipjoint
     direction 0.707368 -0.647095 0.284426 
     length 2.60678 
     axis 0 0 0  XYZ
  end
  begin
     id 2 
     name lfemur
     direction 0.34202 -0.939693 0  
     length 6.63812  
     axis 0 0 20  XYZ
    dof rx ry rz
    limits (-160.0 20.0)
           (-70.0 70.0)
           (-60.0 70.0)
  end
  begin
     id 3 
     name ltibia
     direction 0.34202 -0.939693 0   
     length 7.51178   
     axis 0 0 20   XYZ
    dof rx
    limits (-10.0 170.0)
  end
  begin
     id 4 
     name lfoot
     direction 0.121251 -0.333133 0.935051   
     length 1.83716   
     axis -90 7.62852e-016 20   XYZ
    dof rx rz
    limits (-45.0 90.0)
           (-70.0 20.0)
  end
  begin
     id 5 
     name ltoes
     direction 1.53611e-011 -4.21962e-011 1   
     length 0.916133   
     axis -90 7.62852e-016 20   XYZ
    dof rx
    limits (-90.0 20.0)
  end
  begin
     id 6 
     name rhipjoint
     direction -0.692419 -0.660507 0.290321   
     length 2.55385  
     axis 0 0 0  XYZ 
  end
  begin
     id 7 
     name rfemur
     direction -0.34202 -0.939693 0   
     length 7.29079   
     axis 0 0 -20   XYZ
    dof rx ry rz
    limits (-160.0 20.0)
           (-70.0 70.0)
           (-70.0 60.0)
  end
  begin
     id 8 
     name rtibia
     direction -0.34202 -0.939693 0   
     length 7.47143   
     axis 0 0 -20   XYZ
    dof rx
    limits (-10.0 170.0)
 end
 begin
     id 9 
     name rfoot
     direction -0.119907 -0.329441 0.936532   
     length 1.79439  
     axis -90 -7.62852e-016 -20   XYZ
    dof rx rz
    limits (-45.0 90.0)
           (-20.0 70.0)
  end
  begin
     id 10 
     name rtoes
     direction -1.53571e-011 -4.21961e-011 1   
     length 0.896039   
     axis -90 -7.62852e-016 -20   XYZ
    dof rx
    limits (-90.0 20.0)
  end
  begin
     id 11 
     name lowerback
     direction 0.0367721 0.992912 -0.113016   
     length 1.73542   
     axis 0 0 0   XYZ
    dof rx ry rz
    limits (-20.0 45.0)
           (-30.0 30.0)
           (-30.0 30.0)
  end
  begin
     id 12 
     name upperback
     direction -0.000314626 0.990678 0.136227   
     length 1.7514   
     axis 0 0 0   XYZ
    dof rx ry rz
    limits (-20.0 45.0)
           (-30.0 30.0)
           (-30.0 30.0)
  end
  begin
     id 13 
     name thorax
     direction -0.0226159 0.981151 0.191917   
     length 1.71471   
     axis 0 0 0   XYZ
    dof rx ry rz
    limits (-20.0 45.0)
           (-30.0 30.0)
           (-30.0 30.0)
  end
  begin
     id 14 
     name lowerneck
     direction 0.0219333 0.998071 0.0580739   
     length 1.65882   
     axis 0 0 0   XYZ
    dof rx ry rz
    limits (-20.0 45.0)
           (-30.0 30.0)
           (-30.0 30.0)
  end
  begin
     id 15 
     name upperneck
     direction 0.0384529 0.980058 -0.194957   
     length 1.6612   
     axis 0 0 0   XYZ
    dof rx ry rz
    limits (-20.0 45.0)
           (-30.0 30.0)
           (-30.0 30.0)
  end
  begin
     id 16
     name head
     direction 0.00592123 0.997421 -0.0715234  
     length 1.68077  
     axis 0 0 0   XYZ
    dof rx ry rz
    limits (-20.0 45.0)
           (-30.0 30.0)
           (-30.0 30.0)
  end
  begin
     id 17 
     name lclavicle
     direction 0.904803 0.417826 0.0821728  
     length 3.42227  
     axis 0 0 0   XYZ
    dof ry rz
    limits (-20.0 10.0)
           (0.0 20.0)
  end
  begin
     id 18 
     name lhumerus
     direction 1 -4.48965e-011 -2.68786e-027   
     length 5.11878   
     axis -180 -30 -90   XYZ
    dof rx ry rz
    limits (-60.0 90.0)
           (-90.0 90.0)
           (-90.0 90.0)
  end
  begin
     id 19
     name lradius
     direction 1 -4.48965e-011 2.61168e-028   
     length 3.59971   
     axis -180 -30 -90   XYZ
    dof rx
    limits (-10.0 170.0)
  end
  begin
     id 20
     name lwrist
     direction 1 -4.48965e-011 1.58672e-027   
     length 1.79985   
     axis -1.65735e-015 90 90   XYZ
    dof ry
    limits (-180.0 0.0)
 end
  begin
     id 21 
     name lhand
     direction 1 -4.48942e-011 3.17344e-027   
     length 0.62877   
     axis -2.02492e-015 90 90   XYZ
    dof rx rz
    limits (-90.0 90.0)
           (-45.0 45.0)
  end
  begin
     id 22 
     name lfingers
     direction 1 -4.49011e-011 6.34687e-027   
     length 0.506931   
     axis -4.04985e-015 90 90   XYZ
    dof rx
    limits (0.0 90.0)
  end
  begin
     id 23
     name lthumb
     direction 0.707107 -6.34982e-011 0.707107   
     length 0.727854   
     axis -90 45 2.85299e-015   XYZ
    dof rx rz
    limits (-45.0 45.0)
           (-45.0 45.0)
  end
  begin
     id 24 
     name rclavicle
     direction -0.945647 0.32488 0.0143075   
     length 3.52737  
     axis 0 0 0   XYZ 
    dof ry rz
    limits (-10.0 20.0)
           (-20.0 0.0)
  end
  begin
     id 25 
     name rhumerus
     direction -1 -4.48962e-011 1.92182e-027  
     length 5.4902   
     axis -180 30 90   XYZ
    dof rx ry rz
    limits (-90.0 60.0)
           (-90.0 90.0)
           (-90.0 90.0)
  end
  begin
     id 26 
     name rradius
     direction -1 -4.48967e-011 -5.97193e-028   
     length 3.20659   
     axis -180 30 90   XYZ
    dof rx
    limits (-10.0 170.0)
  end
  begin
     id 27 
     name rwrist
     direction -1 -4.48964e-011 1.58672e-027   
     length 1.6033   
     axis -1.65735e-015 -90 -90   XYZ
    dof ry
    limits (-180.0 0.0)
  end
  begin
     id 28
     name rhand
     direction -1 -4.49006e-011 3.17344e-027   
     length 0.691885   
     axis -2.02492e-015 -90 -90   XYZ
    dof rx rz
    limits (-90.0 90.0)
           (-45.0 45.0)
  end
  begin
     id 29
     name rfingers
     direction -1 -4.48908e-011 6.34687e-027   
     length 0.557815   
     axis -4.04985e-015 -90 -90   XYZ
    dof rx
    limits (0.0 90.0)
  end
  begin
     id 30
     name rthumb
     direction -0.707107 -6.34999e-011 0.707107   
     length 0.800915   
     axis -90 -45 -2.85299e-015   XYZ
    dof rx rz
    limits (-45.0 45.0)
           (-45.0 45.0)
  end
:hierarchy
  begin
    root lhipjoint rhipjoint lowerback
    lhipjoint lfemur
    lfemur ltibia
    ltibia lfoot
    lfoot ltoes
    rhipjoint rfemur
    rfemur rtibia
    rtibia rfoot
    rfoot rtoes
    lowerback upperback
    upperback thorax
    thorax lowerneck lclavicle rclavicle
    lowerneck upperneck
    upperneck head
    lclavicle lhumerus
    lhumerus lradius
    lradius lwrist
    lwrist lhand lthumb
    lhand lfingers
    rclavicle rhumerus
    rhumerus rradius
    rradius rwrist
    rwrist rhand rthumb
    rhand rfingers
  end

#!OML:ASF I:\Actors\actors\Patient Classification 1\Patient 1\Session 1\Subject1.ASF
:FULLY-SPECIFIED
:DEGREES
73
root -0.377832 17.5164 7.61565 9.09297 -5.89222 -5.92305
lowerback 1.02223 0.924946 2.92648
upperback -9.87451 1.53282 1.02107
thorax -11.0585 0.532639 -0.696556
lowerneck -2.38276 -11.868 -11.3924
upperneck 15.4634 -17.3092 11.284
head 7.09397 -8.38209 4.00884
rclavicle -1.0138e-014 -8.34896e-015
rhumerus -55.0056 -41.426 -52.7909
rradius 25.1532
rwrist 46.0384
rhand 1.02457 -33.7193
rfingers 7.12502
rthumb 26.5714 -61.8754
lclavicle -1.0138e-014 -8.34896e-015
lhumerus -56.7084 38.6287 51.5349
lradius 25.517
lwrist -18.144
lhand -18.3016 -5.80987
lfingers 7.12502
lthumb 7.97926 24.0195
rfemur -4.06643 25.7056 22.0475
rtibia 1.31429
rfoot -9.49427 -20.2147
rtoes -1.42973
lfemur 8.76632 -46.4858 -20.6373
ltibia -4.74235
lfoot -31.7285 58.1284
ltoes 20.9349
74
root -0.377855 17.5163 7.61617 9.08099 -5.90964 -5.88175
lowerback 1.01306 0.90312 2.88478
upperback -9.85332 1.50091 1.03929
thorax -11.0308 0.522406 -0.650255
lowerneck -2.41883 -11.8376 -11.4714
upperneck 15.4288 -17.2619 11.3324
head 7.09483 -8.35954 4.03936
rclavicle -8.79622e-015 4.29375e-014
rhumerus -54.9198 -41.3924 -52.8554
rradius 25.142
rwrist 46.1101
rhand 1.11185 -33.8228
rfingers 7.12502
rthumb 26.6549 -61.9662
lclavicle -8.79622e-015 4.29375e-014
lhumerus -56.7748 38.7293 51.4703
lradius 25.5375
lwrist -18.1752
lhand -18.2942 -5.80304
lfingers 7.12502
lthumb 7.98635 24.0261
rfemur -4.04627 25.6482 22.0018
rtibia 1.2888
rfoot -9.44177 -20.159
rtoes -1.41942
lfemur 8.82015 -46.542 -20.735
ltibia -4.73114
lfoot -32.1281 58.0753
ltoes 21.2357
75
root -0.378124 17.5162 7.61661 9.06468 -5.91941 -5.88079
lowerback 1.01385 0.919822 2.90771
upperback -9.84274 1.52319 1.02029
thorax -11.0175 0.53041 -0.685699
lowerneck -2.4656 -11.8597 -11.457
upperneck 15.4836 -17.2895 11.2973
head 7.11958 -8.37128 4.01894
rclavicle 5.11871e-015 -9.93923e-015
rhumerus -54.9597 -41.4606 -52.7925
rradius 25.1125
rwrist 46.1529
rhand 1.14004 -33.8244
rfingers 7.12502
rthumb 26.6819 -61.9636
lclavicle 5.11871e-015 -9.93923e-015
lhumerus -56.6884 38.6627 51.5476
lradius 25.5479
lwrist -18.1009
lhand -18.2559 -5.73715
lfingers 7.12502
lthumb 8.02333 24.0906
rfemur -4.0175 25.6521 22.0104
rtibia 1.26958
rfoot -9.4052 -20.1583
rtoes -1.48076
lfemur 8.86894 -46.5446 -20.7716
ltibia -4.7398
lfoot -32.2628 58.0544
ltoes 21.416
76
root -0.378269 17.5163 7.61625 9.06574 -5.90721 -5.90402
lowerback 1.01222 0.919775 2.94224
upperback -9.84187 1.52523 1.01794
thorax -11.0148 0.528202 -0.707615
lowerneck -2.53984 -11.8628 -11.3684
upperneck 15.5706 -17.2801 11.1709
head 7.13986 -8.36551 3.9615
rclavicle 1.67973e-014 3.97569e-015
rhumerus -54.9816 -41.52 -52.7526
rradius 25.0927
rwrist 46.1629
rhand 1.1032 -33.796
rfingers 7.12502
rthumb 26.6466 -61.9406
lclavicle 1.67973e-014 3.97569e-015
lhumerus -56.6404 38.6063 51.6068
lradius 25.566
lwrist -18.0159
lhand -18.2294 -5.73606
lfingers 7.12502
lthumb 8.04894 24.0907
rfemur -4.01556 25.722 22.0415
rtibia 1.26888
rfoot -9.40984 -20.2359
rtoes -1.45874
lfemur 8.84167 -46.4942 -20.7146
ltibia -4.75472
lfoot -31.944 58.0905
ltoes 21.1518
77
root -0.378403 17.5167 7.61555 9.08598 -5.9003 -5.92374
lowerback 0.998183 0.911367 2.94821
upperback -9.84793 1.51515 1.03303
thorax -11.0139 0.523559 -0.693476
lowerneck -2.64033 -11.8536 -11.2235
upperneck 15.6835 -17.2442 10.9688
head 7.15789 -8.34741 3.87339
rclavicle -5.61567e-015 -2.14687e-014
rhumerus -54.9652 -41.5021 -52.8212
rradius 25.1473
rwrist 46.1289
rhand 1.10184 -33.9317
rfingers 7.12502
rthumb 26.6453 -62.0766
lclavicle -5.61567e-015 -2.14687e-014
lhumerus -56.6903 38.6594 51.5523
lradius 25.5776
lwrist -18.0545
lhand -18.2985 -5.86525
lfingers 7.12502
lthumb 7.98225 23.964
rfemur -4.04978 25.7159 22.0527
rtibia 1.27615
rfoot -9.39967 -20.2471
rtoes -1.57433
lfemur 8.80468 -46.5212 -20.6602
ltibia -4.75321
lfoot -31.8881 58.1257
ltoes 20.9974
